<svg class="animated" id="freepik_stories-bird-on-a-wire" xmlns="http://www.w3.org/2000/svg" viewBox="0 0 500 500" version="1.1" xmlns:xlink="http://www.w3.org/1999/xlink" xmlns:svgjs="http://svgjs.com/svgjs"><style>svg#freepik_stories-bird-on-a-wire:not(.animated) .animable {opacity: 0;}svg#freepik_stories-bird-on-a-wire.animated #freepik--Wires--inject-14 {animation: 1.5s Infinite  linear wind;animation-delay: 0s;}svg#freepik_stories-bird-on-a-wire.animated #freepik--bird-3--inject-14 {animation: 1.5s Infinite  linear shake;animation-delay: 0s;}svg#freepik_stories-bird-on-a-wire.animated #freepik--bird-2--inject-14 {animation: 1.5s Infinite  linear floating;animation-delay: 0s;}svg#freepik_stories-bird-on-a-wire.animated #freepik--bird-1--inject-14 {animation: 6s Infinite  linear shake;animation-delay: 0s;}            @keyframes wind {                0% {                    transform: rotate( 0deg );                }                25% {                    transform: rotate( 1deg );                }                75% {                    transform: rotate( -1deg );                }            }                    @keyframes shake {                10%, 90% {                    transform: translate3d(-1px, 0, 0);                  }                  20%, 80% {                    transform: translate3d(2px, 0, 0);                  }                  30%, 50%, 70% {                    transform: translate3d(-4px, 0, 0);                  }                  40%, 60% {                    transform: translate3d(4px, 0, 0);                  }            }                    @keyframes floating {                0% {                    opacity: 1;                    transform: translateY(0px);                }                50% {                    transform: translateY(-10px);                }                100% {                    opacity: 1;                    transform: translateY(0px);                }            }        .animator-hidden { display: none; }</style><g id="freepik--background-simple--inject-14" class="animable" style="transform-origin: 244.893px 242.102px;"><path d="M244.42,109.74c-74.89,33.69-6.9,93.75-50.15,126.46S33.46,231.09,78.28,316c52.65,99.77,283.19,85.92,332.9-36.45S319.32,76,244.42,109.74Z" style="fill: #656363; transform-origin: 244.893px 242.102px;" id="elkopn3zacxpg" class="animable"></path><g id="eluyqtaoz2bv"><path d="M244.42,109.74c-74.89,33.69-6.9,93.75-50.15,126.46S33.46,231.09,78.28,316c52.65,99.77,283.19,85.92,332.9-36.45S319.32,76,244.42,109.74Z" style="fill: rgb(255, 255, 255); opacity: 0.9; transform-origin: 244.893px 242.102px;" class="animable" id="elchxhery59u"></path></g></g><g id="freepik--Shadow--inject-14" class="animable animator-hidden" style="transform-origin: 250px 416.24px;"><ellipse id="freepik--path--inject-14" cx="250" cy="416.24" rx="193.89" ry="11.32" style="fill: rgb(245, 245, 245); transform-origin: 250px 416.24px;" class="animable"></ellipse></g><g id="freepik--Wires--inject-14" class="animable" style="transform-origin: 253.531px 289.28px;"><path d="M184.21,389c-40.41,0-78.08-8-112.19-23.71a1.5,1.5,0,0,1,1.26-2.72C159.57,402.4,252.85,383.7,315.91,361c68.45-24.65,117.08-59.21,117.56-59.55a1.5,1.5,0,1,1,1.75,2.43c-.49.35-49.39,35.12-118.22,59.92-40.45,14.57-79.78,22.91-116.89,24.77C194.77,388.83,189.46,389,184.21,389Z" style="fill: rgb(38, 50, 56); transform-origin: 253.561px 345.056px;" id="elginxa7nr6fp" class="animable"></path><g id="el32dehc5g7n9"><path d="M184.21,389c-40.41,0-78.08-8-112.19-23.71a1.5,1.5,0,0,1,1.26-2.72C159.57,402.4,252.85,383.7,315.91,361c68.45-24.65,117.08-59.21,117.56-59.55a1.5,1.5,0,1,1,1.75,2.43c-.49.35-49.39,35.12-118.22,59.92-40.45,14.57-79.78,22.91-116.89,24.77C194.77,388.83,189.46,389,184.21,389Z" style="fill: rgb(255, 255, 255); opacity: 0.4; transform-origin: 253.561px 345.056px;" class="animable" id="eliw0ije584am"></path></g><path d="M372.52,242c-56.72,0-119.62-9.24-168.39-18.5-73.28-13.92-131.33-30.86-131.9-31a1.5,1.5,0,1,1,.84-2.88c.58.17,58.5,17.08,131.65,31,67.44,12.8,162,25.59,229.37,13.77a1.5,1.5,0,0,1,.52,3C415.64,240.65,394.54,242,372.52,242Z" style="fill: rgb(38, 50, 56); transform-origin: 253.508px 215.78px;" id="elcvjzu6ii3hh" class="animable"></path><g id="elqqaxewr896"><path d="M372.52,242c-56.72,0-119.62-9.24-168.39-18.5-73.28-13.92-131.33-30.86-131.9-31a1.5,1.5,0,1,1,.84-2.88c.58.17,58.5,17.08,131.65,31,67.44,12.8,162,25.59,229.37,13.77a1.5,1.5,0,0,1,.52,3C415.64,240.65,394.54,242,372.52,242Z" style="fill: rgb(255, 255, 255); opacity: 0.4; transform-origin: 253.508px 215.78px;" class="animable" id="elb4t96y4f0mt"></path></g><path d="M257.2,371.24A912.41,912.41,0,0,1,72.34,352.49a1.5,1.5,0,0,1,.61-2.94c104.69,21.77,197.29,20.61,256.55,15.81,64.17-5.21,104.07-15.69,104.46-15.79a1.5,1.5,0,1,1,.77,2.9c-.4.1-40.55,10.65-105,15.88C309.25,370,284.77,371.24,257.2,371.24Z" style="fill: rgb(38, 50, 56); transform-origin: 253.494px 360.38px;" id="elz45z37r4ip" class="animable"></path></g><g id="freepik--bird-3--inject-14" class="animable" style="transform-origin: 349.522px 316.162px;"><path d="M319.43,325.05s-19.78,31.65-30.06,35.61,9.1,2,9.1,2,2,2.18,8.3.5c0,0,2.77,3.46,4.75,3.06s23-24.54,34-28.88S319.43,325.05,319.43,325.05Z" style="fill: #656363; transform-origin: 316.961px 345.651px;" id="elhp464w9l31t" class="animable"></path><g id="elga92j8u1nyb"><path d="M345.76,337.21l-.22.09c-4.25,1.67-10,6.25-15.49,11.29-8.88,8.1-17.31,17.36-18.53,17.6-2,.4-4.75-3.06-4.75-3.06-6.33,1.68-8.31-.5-8.31-.5s-19.38,2-9.09-2c4.94-1.9,12.08-10.21,18.17-18.32,6.56-8.76,11.89-17.28,11.89-17.28s24,5.11,27.69,9.37C348,335.42,347.74,336.38,345.76,337.21Z" style="opacity: 0.4; transform-origin: 316.979px 345.626px;" class="animable" id="el1lami24k0e"></path></g><g id="elhd9u9s3w7fa"><g style="opacity: 0.2; transform-origin: 312.96px 352.011px;" class="animable" id="elbgc7qswl05c"><path d="M318.65,342.91c-2.62,2.39-5.1,4.85-7.76,7.1a40.12,40.12,0,0,1-4.13,3.14,14.56,14.56,0,0,1-2.27,1.21,3.25,3.25,0,0,1-1.21.29c-.19,0-.4,0-.47-.21a.69.69,0,0,1,.15-.58.73.73,0,0,0-.29.62.67.67,0,0,0,.58.43,3.6,3.6,0,0,0,1.39-.08,11.18,11.18,0,0,0,2.51-1,25.3,25.3,0,0,0,4.39-3.05A41.46,41.46,0,0,0,318.65,342.91Z" id="elx60rwv84gzq" class="animable" style="transform-origin: 310.66px 348.927px;"></path><path d="M320.89,345.64l-3.05,4.24c-1,1.4-2,2.79-3.12,4.14a46.37,46.37,0,0,1-3.39,3.88,17.42,17.42,0,0,1-4,3.21,12.06,12.06,0,0,0,4.55-2.64,26.34,26.34,0,0,0,3.64-3.83A39.93,39.93,0,0,0,320.89,345.64Z" id="ellu83geugyfe" class="animable" style="transform-origin: 314.11px 353.375px;"></path><path d="M299,361.11a5.14,5.14,0,0,0,2.37-.5,9.1,9.1,0,0,0,2.07-1.26,12.35,12.35,0,0,0,1.73-1.66,9.36,9.36,0,0,0,1.35-2c-1.33.92-2.48,1.92-3.7,2.86A21.14,21.14,0,0,1,299,361.11Z" id="el7cd8ac535rp" class="animable" style="transform-origin: 302.76px 358.401px;"></path><path d="M321.31,353.67q-1.46,1.24-3,2.34a17.85,17.85,0,0,1-1.59,1,2.72,2.72,0,0,1-1.76.52,1.31,1.31,0,0,0,1,.15,5.36,5.36,0,0,0,1-.22,10.52,10.52,0,0,0,1.81-.81,19,19,0,0,0,3.23-2.24,19.65,19.65,0,0,0,4.92-6A74.51,74.51,0,0,1,321.31,353.67Z" id="el0xbefkquz0f" class="animable" style="transform-origin: 320.94px 353.065px;"></path></g></g><g id="ele5dy1x54ek8"><path d="M347.12,334.42a25.68,25.68,0,0,1-1.36,2.79l-.22.09c-4.25,1.67-10,6.25-15.49,11.29-5.66.62-13.62-.24-22.51-6.26,6.56-8.76,11.89-17.28,11.89-17.28S343.45,330.16,347.12,334.42Z" style="opacity: 0.2; transform-origin: 327.33px 336.905px;" class="animable" id="elmprmy8cymms"></path></g><path d="M373.31,358.61l-.19,0-17.86-6.4-2.3-8.81-2.9.75,2.69,10.35,16.3,5.84a6.68,6.68,0,0,0-1.15,1.15s3.69-.46,4.15.39-.52,2.18-.52,2.18c.92.92,2.7.26,3.23-.8a4.73,4.73,0,0,0-.07-2.88s1.95-.5,2.47.33a5.3,5.3,0,0,1,.57,2.23c1.38.79,1.64.13,1.71-2S376.87,358.28,373.31,358.61Z" style="fill: rgb(38, 50, 56); transform-origin: 364.751px 353.949px;" id="el4p4rof6c98c" class="animable"></path><path d="M327.4,363.26v-8.11l3.38-12.37-2.9-.79-3.48,12.76v9.19a2.88,2.88,0,0,0-1.58,1.94s2.13-.12,2.59.73-.52,2.18-.52,2.18c.92.92,2.7.26,3.23-.8a4.81,4.81,0,0,0-.07-2.88s2.12-.05,2.64.79-.21,2.35-.21,2.35c1.39.79,2.25-.45,2.32-2.63C332.86,363.6,330.58,363.06,327.4,363.26Z" style="fill: rgb(38, 50, 56); transform-origin: 327.811px 355.609px;" id="elzt8x2r13g" class="animable"></path><g id="el56x80yl323"><g style="opacity: 0.2; transform-origin: 351.131px 355.609px;" class="animable" id="eldnxckrcpn7"><path d="M373.31,358.61l-.19,0-17.86-6.4-2.3-8.81-2.9.75,2.69,10.35,16.3,5.84a6.68,6.68,0,0,0-1.15,1.15s3.69-.46,4.15.39-.52,2.18-.52,2.18c.92.92,2.7.26,3.23-.8a4.73,4.73,0,0,0-.07-2.88s1.95-.5,2.47.33a5.3,5.3,0,0,1,.57,2.23c1.38.79,1.64.13,1.71-2S376.87,358.28,373.31,358.61Z" style="fill: rgb(255, 255, 255); transform-origin: 364.751px 353.949px;" id="elusa37dzt38" class="animable"></path><path d="M327.4,363.26v-8.11l3.38-12.37-2.9-.79-3.48,12.76v9.19a2.88,2.88,0,0,0-1.58,1.94s2.13-.12,2.59.73-.52,2.18-.52,2.18c.92.92,2.7.26,3.23-.8a4.81,4.81,0,0,0-.07-2.88s2.12-.05,2.64.79-.21,2.35-.21,2.35c1.39.79,2.25-.45,2.32-2.63C332.86,363.6,330.58,363.06,327.4,363.26Z" style="fill: rgb(255, 255, 255); transform-origin: 327.811px 355.609px;" id="ele63ucwjl4q" class="animable"></path></g></g><path d="M402.91,276.72s-2.29,6.72-5.94,9.49c-1.92,1.46-3,5.45-5,12.32a251.39,251.39,0,0,1-8.82,25.66c-9.49,23.34-38.76,28.86-55.78,20.56-5.58-2.72-8.6-7.7-9.54-13.57-1.92-12,4.81-27.74,15.87-35.61,17.81-12.66,30-19,30-19s9.43-13.31,20.47-13.47C402.91,262.83,402.91,276.72,402.91,276.72Z" style="fill: #656363; transform-origin: 360.207px 305.741px;" id="elr47nnnifsqs" class="animable"></path><path d="M395.19,276.88a2.28,2.28,0,1,1-2.27-2.28A2.27,2.27,0,0,1,395.19,276.88Z" style="fill: rgb(38, 50, 56); transform-origin: 392.91px 276.88px;" id="elrwwd5zlml3m" class="animable"></path><path d="M412.53,282.78c-2.24,1.86-15.56,3.43-15.56,3.43l-.52-4.74,6.46-4.75h0C403.63,277,414.07,281.51,412.53,282.78Z" style="fill: rgb(38, 50, 56); transform-origin: 404.567px 281.465px;" id="elr7blgiygeys" class="animable"></path><g id="el1f7bnltkhca"><path d="M391.73,299c-.36,3.51-2.13,7.34-3.24,10.68Q386,317,383.12,324.19c-9.49,23.34-38.76,28.86-55.78,20.56-5.58-2.72-8.6-7.7-9.54-13.57a32.42,32.42,0,0,1,1.63-6.13c6.73-18.2,26.9-35.66,26.9-35.66l.63-.18c3.76-1.07,7.16-.75,10.92-.16a6.22,6.22,0,0,1,2.9,1,14.5,14.5,0,0,1,1.36,1.46,2.3,2.3,0,0,0,1.73.85c-.22-.18.13-.58.39-.46a.72.72,0,0,1,.33.75,2,2,0,0,0,0,.87,1,1,0,0,0,1.1.46c1-.23,1.2-.85,1.91.33a6.17,6.17,0,0,1,.28,1.89,6.27,6.27,0,0,0,2.32-.23,2.19,2.19,0,0,0,1.24,1.95,2.22,2.22,0,0,0,2.29-.33c-.36.48.24,1.14.82,1.27a4.11,4.11,0,0,1,1.73.4,9.28,9.28,0,0,1,.71.82,3.05,3.05,0,0,0,2.24.6h5.06a14.43,14.43,0,0,0,4.14-.42C389.41,300,390.78,298.67,391.73,299Z" style="fill: rgb(255, 255, 255); opacity: 0.6; transform-origin: 354.765px 318.446px;" class="animable" id="el4iud7i4954"></path></g><path d="M361.71,297.92a1.48,1.48,0,0,0,.05-.35c0-6.12-9.7-14.24-19.38-11.64-17.25,4.63-24.64,26.92-27.39,38.76-5,1.11-8.59,4.15-7.65,4.86s5.93-.27,5.93-.27-17,8.44-7.91,6.86a37.25,37.25,0,0,0,3.65-.85c-4.95,3.53-11.72,8.71-8.53,8.5,5.84-.4,25-13.42,40.35-25.65C352.22,309.85,361.17,301.21,361.71,297.92Z" style="fill: rgb(38, 50, 56); transform-origin: 330.708px 314.614px;" id="eltxlfz64ew68" class="animable"></path><g id="elh3cum5lrq16"><path d="M315.77,332.18a.66.66,0,0,1-.21-.76,3.34,3.34,0,0,1,.34-.77,10.83,10.83,0,0,1,1-1.34c.72-.84,1.49-1.61,2.27-2.37,1.58-1.51,3.27-2.88,5-4.23s3.47-2.61,5.28-3.82,3.62-2.39,5.52-3.45c-.83.7-1.69,1.37-2.52,2.06l-2.55,2-5.11,4q-2.58,2-5.08,4c-.84.68-1.65,1.38-2.42,2.13a10.06,10.06,0,0,0-1.1,1.16,3.09,3.09,0,0,0-.41.67A.59.59,0,0,0,315.77,332.18Z" style="fill: rgb(255, 255, 255); opacity: 0.2; transform-origin: 325.243px 323.81px;" class="animable" id="elplgvbvgl7p"></path></g><g id="el7fji6yp43om"><path d="M337.93,316a1.06,1.06,0,0,1-.49-.53,2.34,2.34,0,0,1-.12-.74,5.56,5.56,0,0,1,.18-1.46,12.37,12.37,0,0,1,1.1-2.69,22.78,22.78,0,0,1,3.43-4.66,27.56,27.56,0,0,1,4.41-3.73,24.56,24.56,0,0,1,5.07-2.67,47.06,47.06,0,0,0-8.75,7.09,30.46,30.46,0,0,0-3.49,4.36,17,17,0,0,0-1.31,2.45,5.23,5.23,0,0,0-.38,1.32A1.3,1.3,0,0,0,337.93,316Z" style="fill: rgb(255, 255, 255); opacity: 0.2; transform-origin: 344.415px 307.76px;" class="animable" id="elgwzjk658pjb"></path></g><g id="elei4v1wh4vf"><path d="M328.7,316.89a2.05,2.05,0,0,1-.93-1.2,3.87,3.87,0,0,1-.12-1.55,9.35,9.35,0,0,1,.93-2.94,22.22,22.22,0,0,1,3.48-5,28.35,28.35,0,0,1,4.55-4,19.58,19.58,0,0,1,5.37-2.73,33.9,33.9,0,0,0-4.9,3.35,39.13,39.13,0,0,0-4.28,4.06,28.57,28.57,0,0,0-3.53,4.68,10.16,10.16,0,0,0-1.14,2.65A2.56,2.56,0,0,0,328.7,316.89Z" style="fill: rgb(255, 255, 255); opacity: 0.2; transform-origin: 334.8px 308.18px;" class="animable" id="eltuq7dpb8to"></path></g><g id="el5ye3oe1m0k"><path d="M325.23,312.93c-1.34,1.94-2.83,3.71-4.24,5.53-.72.9-1.41,1.82-2,2.76a8,8,0,0,0-.79,1.47,1.13,1.13,0,0,0,.25,1.45,1,1,0,0,1-.67-.62,2.19,2.19,0,0,1-.06-.95,6.32,6.32,0,0,1,.59-1.73,17.18,17.18,0,0,1,1.93-3,28.17,28.17,0,0,1,2.36-2.63A22.53,22.53,0,0,1,325.23,312.93Z" style="fill: rgb(255, 255, 255); opacity: 0.2; transform-origin: 321.462px 318.535px;" class="animable" id="elv4el0ld5yrd"></path></g><g id="elbikymn8nmci"><path d="M331.47,304.36a4.82,4.82,0,0,1-.87-1.72,5.07,5.07,0,0,1-.1-2,6.76,6.76,0,0,1,1.71-3.55,11.14,11.14,0,0,1,3.07-2.37,14.51,14.51,0,0,1,3.57-1.33c-1.08.67-2.16,1.28-3.16,2a14.76,14.76,0,0,0-2.73,2.36,7.35,7.35,0,0,0-1.7,3A5.72,5.72,0,0,0,331.47,304.36Z" style="fill: rgb(255, 255, 255); opacity: 0.2; transform-origin: 334.647px 298.875px;" class="animable" id="el6eui9j4touj"></path></g><g id="el61988ee7ogj"><path d="M322.37,312.93a5.55,5.55,0,0,1-.45-3.1,7.57,7.57,0,0,1,1.11-3,9.12,9.12,0,0,1,2.11-2.35,10.45,10.45,0,0,1,2.67-1.58c-.72.75-1.47,1.41-2.14,2.15a15.27,15.27,0,0,0-1.8,2.31A9.16,9.16,0,0,0,322.37,312.93Z" style="fill: rgb(255, 255, 255); opacity: 0.2; transform-origin: 324.837px 307.915px;" class="animable" id="el3vxj4iuz5h3"></path></g><g id="eltmgl0au0lo"><g style="opacity: 0.2; transform-origin: 371.225px 317.884px;" class="animable" id="elig8uhkua4qe"><path d="M386.85,309.25a5.63,5.63,0,0,1-1.11,1.45.82.82,0,0,1-1.28,0l-.3-.33-.26.42a11.47,11.47,0,0,1-2.32,2.63,5.73,5.73,0,0,1-1.46.82,3.09,3.09,0,0,1-1.56.12,5,5,0,0,1-1.5-.68,5.55,5.55,0,0,1-1.26-1.11,6.11,6.11,0,0,1-1.29-3.08l-.14-1.23-.69,1a2.38,2.38,0,0,1-2,1,4,4,0,0,1-1.23-.25,2.83,2.83,0,0,1-1-.7A7.5,7.5,0,0,1,368.1,307a15.57,15.57,0,0,1-.76-2.63,12.23,12.23,0,0,0,.44,2.74,6.82,6.82,0,0,0,1.23,2.56,3.39,3.39,0,0,0,1.18.93,4.45,4.45,0,0,0,1.45.39,3.14,3.14,0,0,0,2.1-.57,6.59,6.59,0,0,0,1.31,2.76,5.82,5.82,0,0,0,1.47,1.33,5.43,5.43,0,0,0,1.85.81,4.14,4.14,0,0,0,2.07-.17,6.52,6.52,0,0,0,1.71-1,10.42,10.42,0,0,0,2.18-2.65,1.39,1.39,0,0,0,.76.19,1.69,1.69,0,0,0,1-.51,5.24,5.24,0,0,0,1.12-1.69,17,17,0,0,0,1.18-3.71A21.64,21.64,0,0,1,386.85,309.25Z" id="elo5uecan21j" class="animable" style="transform-origin: 377.865px 309.875px;"></path><path d="M362.59,330.81a14.42,14.42,0,0,1-2.58-.68,5.59,5.59,0,0,1-2.18-1.21,5.83,5.83,0,0,1-1.26-2.14,10.19,10.19,0,0,1-.47-2.54,20,20,0,0,1,.42-5.28l.12-.6-.65.11c-.21,0-.41.12-.58-.05s-.17-.18-.27-.27-.14-.25-.2-.38a5.94,5.94,0,0,1-.42-1.86,10.79,10.79,0,0,1,0-2,5.83,5.83,0,0,1,.4-1.93,5.1,5.1,0,0,0-.68,1.9,9.77,9.77,0,0,0-.18,2,6.46,6.46,0,0,0,.31,2.07c.07.17.15.34.23.51s.21.35.41.48l.28.19a2.14,2.14,0,0,0,.34.09s0,0,0,0a17.28,17.28,0,0,0-.5,5,7.81,7.81,0,0,0,2.06,5.29,6.35,6.35,0,0,0,2.59,1.33,15.17,15.17,0,0,0,2.74.5,9.67,9.67,0,0,0,2.79-.1,6.44,6.44,0,0,0,2.56-1A9.32,9.32,0,0,1,362.59,330.81Z" id="elgy8lls4ci9n" class="animable" style="transform-origin: 360.965px 321.689px;"></path><path d="M380,323.63a1.33,1.33,0,0,1-.82-.73l-.22-.4-.37.3a20.63,20.63,0,0,1-3.72,2.35,7,7,0,0,1-4.08.77,7.11,7.11,0,0,1-3.48-2.32,13.62,13.62,0,0,1-2.31-3.81,11,11,0,0,0,1.79,4.22,7.14,7.14,0,0,0,3.8,2.83,7.33,7.33,0,0,0,4.7-.81,16.17,16.17,0,0,0,3.5-2.39,1.73,1.73,0,0,0,1.12.62,2.4,2.4,0,0,0,1.54-.48,8.11,8.11,0,0,0,2-2.17,9.4,9.4,0,0,1-2.25,1.76A2,2,0,0,1,380,323.63Z" id="elldip34yfyze" class="animable" style="transform-origin: 374.225px 323.362px;"></path></g></g><g id="elj6kii9oz03"><g style="opacity: 0.2; transform-origin: 385.345px 288.72px;" class="animable" id="el5jygmsllwob"><path d="M377.86,285.2a5.14,5.14,0,0,0,1.64.56,6.32,6.32,0,0,0,1.31.1,2.65,2.65,0,0,0,1.61,1.74,6,6,0,0,0,2.52.51,14.24,14.24,0,0,0,2.45-.26,20.83,20.83,0,0,0,2.06-.55,2.47,2.47,0,0,0,1.05.82,3,3,0,0,0,1.58.18,4.23,4.23,0,0,0,2.55-1.48,4.46,4.46,0,0,1-2.59,1,2.09,2.09,0,0,1-2.05-1.14l-.12-.31-.37.1a19.35,19.35,0,0,1-4.56.68,5.64,5.64,0,0,1-2.13-.4,2.54,2.54,0,0,1-.83-.54,1.23,1.23,0,0,1-.37-.71l0-.53-.47.06a6.39,6.39,0,0,1-1.52,0,5.38,5.38,0,0,1-1.49-.34,3.51,3.51,0,0,1-1.27-.85,4.31,4.31,0,0,1-.8-1.38,3.67,3.67,0,0,0,.56,1.57A3.51,3.51,0,0,0,377.86,285.2Z" id="elfitvyfkm9ta" class="animable" style="transform-origin: 385.345px 285.398px;"></path><path d="M390.37,294a5.24,5.24,0,0,1-1.24-.31,5.37,5.37,0,0,1-1.12-.58l-.18-.13-.25.1a9.91,9.91,0,0,1-3.56.88,3,3,0,0,1-1.61-.44,1.81,1.81,0,0,1-.94-1.11l-.06-.41h-.33a8.74,8.74,0,0,1-2.47-.49,4.54,4.54,0,0,1-1.11-.59,2.85,2.85,0,0,1-.8-1,2.53,2.53,0,0,0,.59,1.22,4.1,4.1,0,0,0,1.09.86,6.86,6.86,0,0,0,1.28.55,8.91,8.91,0,0,0,1,.24,2.69,2.69,0,0,0,1.2,1.57,3.91,3.91,0,0,0,2.11.62,9,9,0,0,0,3.75-1,6.43,6.43,0,0,0,1.14.45,4.94,4.94,0,0,0,1.44.17,3.76,3.76,0,0,0,1.41-.31,3.82,3.82,0,0,0,1.16-.78,4.45,4.45,0,0,1-1.26.49A3.73,3.73,0,0,1,390.37,294Z" id="elqhokamjt73n" class="animable" style="transform-origin: 384.785px 292.45px;"></path></g></g><g id="elbuu0tj2huht"><path d="M412.53,282.78c-9.66,1-16.08-1.31-16.08-1.31l6.46-4.75h0C403.63,277,414.07,281.51,412.53,282.78Z" style="fill: rgb(255, 255, 255); opacity: 0.2; transform-origin: 404.567px 279.876px;" class="animable" id="el0s3w0ggoxhxg"></path></g></g><g id="freepik--bird-2--inject-14" class="animable animator-active" style="transform-origin: 253.504px 219.16px;"><path d="M293.74,234.85a4.16,4.16,0,0,0-1.35-.67,3.68,3.68,0,0,0-2.34,0,3.3,3.3,0,0,0-1.4-.66c-2.29-.53-4.36.66-5.5,3.17-1.24,2.72-1.22,6.54.45,8.82a5.58,5.58,0,0,0,.78,3.27,3.12,3.12,0,0,0,.76.82,2.75,2.75,0,0,0,.4.26c.07.5.14,1.05.21,1.66a215.61,215.61,0,0,1,.56,26.51,8.55,8.55,0,0,0,.74,3.73l.1.23,1-.24.11-.19a8.14,8.14,0,0,0,1.11-3.82,211.39,211.39,0,0,0-.4-24.17c-.14-1.46-.29-2.8-.49-4,2.44-1.86,3.95-8.08,3.34-11.89a5.17,5.17,0,0,0-.11-.54l.1,0s0,0,0,0a2.53,2.53,0,0,1,.24.56c2.35,7.18.9,57.15-.7,89.2,0,.84.6,3.07,1.45,3.11h0c.84,0,1.55-2.12,1.6-3,.26-5.41,1.13-24.44,1.61-43.54C297.21,237.4,295,235.74,293.74,234.85Zm-6.16,11a4.67,4.67,0,0,0-.82-1.44,14,14,0,0,1,2.15-5.38A15.86,15.86,0,0,1,287.58,245.88Z" style="fill: rgb(38, 50, 56); transform-origin: 289.316px 281.703px;" id="elwafzl6eryr" class="animable"></path><g id="el9nqaa192v"><g style="opacity: 0.7; transform-origin: 289.303px 281.703px;" class="animable" id="elpxmru6449h"><path d="M293.74,234.85a4.16,4.16,0,0,0-1.35-.67,3.68,3.68,0,0,0-2.34,0,3.3,3.3,0,0,0-1.4-.66c-2.29-.53-4.36.66-5.5,3.17a8.82,8.82,0,0,0-.64,2.06,9.07,9.07,0,0,0,.83,6.37,3.77,3.77,0,0,0,.26.39,5.58,5.58,0,0,0,.78,3.27,3.12,3.12,0,0,0,.76.82,2.75,2.75,0,0,0,.4.26c.07.5.14,1.05.21,1.66a219.44,219.44,0,0,1,.57,26.51,8.4,8.4,0,0,0,.73,3.73l.1.23,1-.23.12-.2a8.25,8.25,0,0,0,1.1-3.82,211.35,211.35,0,0,0-.4-24.17c-.14-1.46-.29-2.8-.49-4,2.44-1.86,3.95-8.08,3.34-11.89a5.17,5.17,0,0,0-.11-.54l.1,0s0,0,0,0a2.53,2.53,0,0,1,.24.56c2.36,7.19.9,57.15-.7,89.2-.05.84.61,3.06,1.45,3.11h0c.82,0,1.52-2.13,1.57-3,.26-5.4,1.14-24.43,1.61-43.54C297.21,237.4,295,235.74,293.74,234.85Zm-6.16,11a4.67,4.67,0,0,0-.82-1.44,14,14,0,0,1,2.15-5.38A15.86,15.86,0,0,1,287.58,245.88Z" style="fill: rgb(255, 255, 255); transform-origin: 289.303px 281.703px;" id="elfbddx01ro8" class="animable"></path></g></g><g id="el847o5eod06x"><path d="M292.09,237.81a2.53,2.53,0,0,0-.24-.56s0,0,0,0l0,0c-.68-2.44-1.75-3-1.75-3a3.68,3.68,0,0,1,2.34,0C293,235.74,292.58,238.27,292.09,237.81Z" style="opacity: 0.2; transform-origin: 291.404px 235.962px;" class="animable" id="elei9vsllwz0p"></path></g><g id="elwpj5don36z7"><path d="M288.91,239.06a14,14,0,0,0-2.15,5.38,1.54,1.54,0,0,0-.35-.22c-.72-.33-2.06.32-3.07.95a9.07,9.07,0,0,1-.83-6.37c1.54.69,3,.72,3.06.26a3.37,3.37,0,0,1,1.13-2.13C287.72,236,288.94,237.49,288.91,239.06Z" style="opacity: 0.2; transform-origin: 285.588px 240.906px;" class="animable" id="elzouq4tgao3i"></path></g><g id="elf3aiagxf9mn"><path d="M287.57,245.92c-.11.38-1.13,3.7-3.19,2.91a5.58,5.58,0,0,1-.78-3.27S285.87,249.08,287.57,245.92Z" style="opacity: 0.2; transform-origin: 285.578px 247.256px;" class="animable" id="elx6ku1d8cfft"></path></g><g id="el5yhrnwbkyhq"><path d="M289,253.62c-1.06,0-2.37-1.18-3.23-2.05-.07-.61-.14-1.16-.21-1.66a3.5,3.5,0,0,0,2.95-.29C288.69,250.82,288.84,252.16,289,253.62Z" style="opacity: 0.2; transform-origin: 287.28px 251.62px;" class="animable" id="el4r5qmrhrlu8"></path></g><path d="M292.11,329.43l-.66,7.18a1.38,1.38,0,0,0,1.46.13l.65-7.14A2,2,0,0,0,292.11,329.43Z" style="fill: rgb(38, 50, 56); transform-origin: 292.505px 333.127px;" id="elk7fagir397f" class="animable"></path><g id="elan088jpglsj"><path d="M292.11,329.43l-.66,7.18a1.38,1.38,0,0,0,1.46.13l.65-7.14A2,2,0,0,0,292.11,329.43Z" style="fill: rgb(255, 255, 255); opacity: 0.5; transform-origin: 292.505px 333.127px;" class="animable" id="el6jbvrlzyodp"></path></g><path d="M261.42,209.05C251,220,243.27,270.87,236.84,273l-6.43,2.11s-5,4.75-7,3.61-1.8-6.9-1.8-6.9a18.83,18.83,0,0,0-1.89-4.71c-1.47-2.65,15.4-59.48,16.85-79.65S261.42,209.05,261.42,209.05Z" style="fill: #656363; transform-origin: 240.525px 230.426px;" id="elp99nsomjq1o" class="animable"></path><g id="el9rl0o1pt9n5"><path d="M261.42,209.05c-2.1,2.19-4.1,6-6,10.69C247.91,238.43,242,271.3,236.84,273l-6.43,2.11s-5,4.75-7,3.61-1.79-6.9-1.79-6.9a18.66,18.66,0,0,0-1.9-4.71c-.84-1.54,4.44-21.19,9.33-41.38,3.57-14.74,6.92-29.77,7.53-38.27a11.49,11.49,0,0,1,.79-3.82c1.75-3.83,5.91-.62,10.29,4.65h0C254.27,196.29,261.42,209.05,261.42,209.05Z" style="opacity: 0.4; transform-origin: 240.526px 230.428px;" class="animable" id="el3mm7cdlhsph"></path></g><g id="elbo4vnhaadaw"><path d="M251.58,216.61c-.54,3-1.18,6-1.88,9s-1.44,6-2.28,8.91-1.71,5.9-2.77,8.79a34,34,0,0,1-1.81,4.27c-.18.35-.38.69-.6,1a2.48,2.48,0,0,1-.91.88,3.55,3.55,0,0,1-1.16.36,5.09,5.09,0,0,1-1.16.09,7.07,7.07,0,0,0,2-.93,4.45,4.45,0,0,0,1.17-1.74c.62-1.37,1.11-2.82,1.6-4.26,1-2.89,1.82-5.82,2.68-8.76l2.53-8.82C249.85,222.49,250.69,219.54,251.58,216.61Z" style="opacity: 0.2; transform-origin: 245.295px 233.262px;" class="animable" id="el8vr7swwpq9t"></path></g><g id="elnco9g1he1df"><path d="M245.45,217.22c-1,4.27-2.12,8.5-3.29,12.71s-2.47,8.4-3.77,12.58-2.77,8.32-4.43,12.38c-.43,1-.85,2-1.34,3a13.89,13.89,0,0,1-1.69,2.89l-.32.31-.35.24a3.34,3.34,0,0,1-.73.43,2.31,2.31,0,0,1-1.71.2,2.25,2.25,0,0,1-1.22-1.15,5.16,5.16,0,0,1-.51-1.57,5.39,5.39,0,0,0,.64,1.5,2.14,2.14,0,0,0,1.17,1,3.11,3.11,0,0,0,2.66-1.26,14.25,14.25,0,0,0,1.49-2.82c.43-1,.81-2,1.19-3,1.51-4.09,2.89-8.24,4.2-12.4s2.65-8.33,4-12.5l2-6.25Z" style="opacity: 0.2; transform-origin: 235.77px 239.63px;" class="animable" id="elz0zmss8yhq"></path></g><g id="el3v1666h0c7i"><path d="M238.9,252.33a46.29,46.29,0,0,1-3.15,10.13,28.45,28.45,0,0,1-2.56,4.69,13.17,13.17,0,0,1-1.74,2.07,4.61,4.61,0,0,1-2.35,1.27,4.89,4.89,0,0,0,2-1.61,17.52,17.52,0,0,0,1.44-2.15,48.4,48.4,0,0,0,2.31-4.68C236.26,258.86,237.51,255.59,238.9,252.33Z" style="opacity: 0.2; transform-origin: 234px 261.41px;" class="animable" id="eljmryz5q2lf"></path></g><g id="elsuqbfhtz3a"><path d="M237.88,213.44c-.79,4.27-1.73,8.52-2.72,12.75s-2.11,8.43-3.23,12.63-2.4,8.36-3.82,12.48c-.71,2.06-1.46,4.1-2.29,6.12-.42,1-.87,2-1.36,3a14.44,14.44,0,0,1-1.73,2.77,27.57,27.57,0,0,0,2.64-5.92c.73-2,1.39-4.1,2-6.18,1.26-4.15,2.47-8.31,3.59-12.5s2.3-8.37,3.44-12.56l1.72-6.29Z" style="opacity: 0.2; transform-origin: 230.305px 238.315px;" class="animable" id="elva1mwocys4d"></path></g><g id="el7soa1n6zsib"><path d="M261.42,209.05c-2.1,2.19-4.1,6-6,10.69-5.72,3.33-14.32,6.33-26.43,6,3.57-14.74,6.92-29.77,7.53-38.27a11.49,11.49,0,0,1,.79-3.82,26,26,0,0,1,10.29,4.65h0C254.27,196.29,261.42,209.05,261.42,209.05Z" style="opacity: 0.2; transform-origin: 245.205px 204.707px;" class="animable" id="elztmaen52jnc"></path></g><path d="M269.81,240.49c-27.57,0-53.35-1.38-75.63-3.26-70-5.89-121.36-17.77-121.87-17.89a1.5,1.5,0,0,1,.68-2.92c.51.12,51.71,12,121.49,17.83,64.36,5.42,158.14,6.72,239.43-17.81a1.5,1.5,0,0,1,.87,2.87C381.2,235.48,322.26,240.49,269.81,240.49Z" style="fill: rgb(38, 50, 56); transform-origin: 253.504px 228.438px;" id="el1ng7otardp9" class="animable"></path><polygon points="275.33 238.94 262.67 222.94 260.03 214.56 262.89 213.66 265.37 221.51 277.69 237.08 275.33 238.94" style="fill: rgb(38, 50, 56); transform-origin: 268.86px 226.3px;" id="elo94564ksef" class="animable"></polygon><polygon points="231.19 236.57 228.5 235.24 236.17 219.72 238.3 209.73 241.24 210.35 238.95 220.88 231.19 236.57" style="fill: rgb(38, 50, 56); transform-origin: 234.87px 223.15px;" id="eld2yqma07d6j" class="animable"></polygon><g id="el6eg07x73ur7"><g style="opacity: 0.2; transform-origin: 268.86px 226.3px;" class="animable" id="elxj1wy1b3szo"><polygon points="275.33 238.94 262.67 222.94 260.03 214.56 262.89 213.66 265.37 221.51 277.69 237.08 275.33 238.94" style="fill: rgb(255, 255, 255); transform-origin: 268.86px 226.3px;" id="elqtw7fq1r3wd" class="animable"></polygon></g></g><g id="elwoqh5wgc6j"><g style="opacity: 0.2; transform-origin: 234.87px 223.15px;" class="animable" id="ely51gi01z5np"><polygon points="231.19 236.57 228.5 235.24 236.17 219.72 238.3 209.73 241.24 210.35 238.95 220.88 231.19 236.57" style="fill: rgb(255, 255, 255); transform-origin: 234.87px 223.15px;" id="el5kliphdgo14" class="animable"></polygon></g></g><path d="M274.36,237.35c-.16-.64,2.18-1.5,2.18-1.5,1.87.06,4.89,3,4.39,4.87-.39,1.48-1.82.63-1.82.63s-.95-1.91-2-1.91a4.62,4.62,0,0,1-.95,2.37c-.79.79-1.68.39-2.38-1.24C273.76,240.57,274.9,239.58,274.36,237.35Z" style="fill: rgb(38, 50, 56); transform-origin: 277.382px 239.026px;" id="eldcw7g83ajuc" class="animable"></path><path d="M228.14,235.38c.57-1.43,2.56-.68,2.56-.68,1.74.69,3.59,4.47,2.49,6.06-.87,1.27-1.92,0-1.92,0s-.25-2.12-1.27-2.49a4.59,4.59,0,0,1-1.69,1.91c-1,.48-1.71-.19-1.82-2A8,8,0,0,0,228.14,235.38Z" style="fill: rgb(38, 50, 56); transform-origin: 230.006px 237.914px;" id="elbr842o1xhee" class="animable"></path><g id="elveolbdcqha"><g style="opacity: 0.2; transform-origin: 277.382px 239.026px;" class="animable" id="elpjfwwn5pf4"><path d="M274.36,237.35c-.16-.64,2.18-1.5,2.18-1.5,1.87.06,4.89,3,4.39,4.87-.39,1.48-1.82.63-1.82.63s-.95-1.91-2-1.91a4.62,4.62,0,0,1-.95,2.37c-.79.79-1.68.39-2.38-1.24C273.76,240.57,274.9,239.58,274.36,237.35Z" style="fill: rgb(255, 255, 255); transform-origin: 277.382px 239.026px;" id="elgbovn0c1tb7" class="animable"></path></g></g><g id="elfcb0vk565u"><g style="opacity: 0.2; transform-origin: 230.006px 237.914px;" class="animable" id="el3tinoptmaet"><path d="M228.14,235.38c.57-1.43,2.56-.68,2.56-.68,1.74.69,3.59,4.47,2.49,6.06-.87,1.27-1.92,0-1.92,0s-.25-2.12-1.27-2.49a4.59,4.59,0,0,1-1.69,1.91c-1,.48-1.71-.19-1.82-2A8,8,0,0,0,228.14,235.38Z" style="fill: rgb(255, 255, 255); transform-origin: 230.006px 237.914px;" id="el5p746jtbd6k" class="animable"></path></g></g><path d="M280.09,204.81c-18.07,19.05-39.63,17.26-45.76,6.39-5.62-10-5.26-23.39-2.74-35.89a49.14,49.14,0,0,1,1.5-5.64A60.83,60.83,0,0,1,242.66,152a82.35,82.35,0,0,1,8.64-9.6h0A80.15,80.15,0,0,1,263,132.93s1-14.07-5.44-21.89c-5.38-6.51,18.1-14.33,28.12-6s10.55,35.38,10.55,35.38a25.44,25.44,0,0,1,2,4C301.88,153.4,306.93,176.48,280.09,204.81Z" style="fill: #656363; transform-origin: 265.506px 160.36px;" id="elqr78qgwcykd" class="animable"></path><circle cx="268.98" cy="111.04" r="2.27" style="fill: rgb(38, 50, 56); transform-origin: 268.98px 111.04px;" id="elzxez3snramm" class="animable"></circle><path d="M266.67,117.12l-4.68,3.5s-15.7-1.89-15.7-3.5S257.6,111,257.6,111Z" style="fill: rgb(38, 50, 56); transform-origin: 256.48px 115.81px;" id="el4mgp7939k8q" class="animable"></path><g id="elwpt830zhq8r"><path d="M280.09,204.81c-18.07,19.05-39.63,17.26-45.76,6.39-5.62-10-5.26-23.39-2.74-35.89a49.14,49.14,0,0,1,1.5-5.64A103.21,103.21,0,0,1,242.66,152a40,40,0,0,1,8.65-9.61c0-.65,2.6-1.34,3.07-1.52a11,11,0,0,0,2.89-1.73,6.6,6.6,0,0,1,1.8-1.07,7,7,0,0,1,1.7-.26c2.77-.18,5.73-.31,8.1,1.11a5.87,5.87,0,0,0-1.22-2.46,7.43,7.43,0,0,1,5,2.19c.53.47,3.74,3.92,3.38,4.29.29-.32.57-.64.86-.95a6.31,6.31,0,0,0,1.46,4.1,3.71,3.71,0,0,0,4,1.07,8.84,8.84,0,0,0,2.24,3.16,3,3,0,0,0,3.61.19,1.09,1.09,0,0,1,.53-.32c.3,0,.51.27.75.47.82.7,2.11.25,3-.37a7.67,7.67,0,0,1,.9-.58,9.56,9.56,0,0,1,.94-.35,5.08,5.08,0,0,0,2.1-1.54c.43-.55.85-2.36,1.53-2.55.84-.24,1.06,1.28,1.27,2a41.19,41.19,0,0,1,1.34,5.58,45.89,45.89,0,0,1-.09,15.29C298.06,182.16,289.78,194.58,280.09,204.81Z" style="fill: rgb(255, 255, 255); opacity: 0.6; transform-origin: 265.499px 177.876px;" class="animable" id="elfx1mt7hd1z"></path></g><path d="M268.94,149.78c-.95-11.2-4.3-17-12.62-11.89C235,151,229.17,174,227.94,190.48c-3.11,5.19-3.88,11.25-3.58,11.86.4.79,2.95-1.18,2.95-1.18-5.36,10.28-6.9,18.39-6.11,19.18s5.73-10.3,5.73-10.3c-7.31,16.6-5.77,19.07-4.15,20.29s6.33-12.62,10.64-20.28C244.13,193.1,269.78,159.58,268.94,149.78Z" style="fill: rgb(38, 50, 56); transform-origin: 244.983px 183.211px;" id="elzkvn4zumle" class="animable"></path><g id="el4rhcp8oirnb"><path d="M272.82,153.88a37,37,0,0,0,1.19,6.75,7.1,7.1,0,0,0,.65,1.52,2,2,0,0,0,1.06,1,1.6,1.6,0,0,0,1.34-.33,6.69,6.69,0,0,0,1.19-1.08l.56-.6.16.81a26,26,0,0,0,1.31,4.49,10.64,10.64,0,0,0,1.05,2,2.56,2.56,0,0,0,1.53,1.17,3.27,3.27,0,0,0,1.93-.58,11.25,11.25,0,0,0,1.8-1.39,24.51,24.51,0,0,0,3.08-3.51l.54-.72.25.87A10,10,0,0,0,292,167.7a1.56,1.56,0,0,0,1.38.73,2.79,2.79,0,0,0,1.46-1,12,12,0,0,0,2-3.31,24.94,24.94,0,0,0,1.24-3.78,20.49,20.49,0,0,1-.93,3.9,10.91,10.91,0,0,1-1.92,3.58,3.34,3.34,0,0,1-1.78,1.24,2.48,2.48,0,0,1-.61,0,3,3,0,0,1-.58-.19,3.61,3.61,0,0,1-.88-.71,9.85,9.85,0,0,1-1.83-3.73l.78.15a25.71,25.71,0,0,1-3.15,3.69,11.81,11.81,0,0,1-1.95,1.54,3.92,3.92,0,0,1-2.56.71,3.42,3.42,0,0,1-2.18-1.6,11.56,11.56,0,0,1-1.12-2.22,26.14,26.14,0,0,1-1.28-4.68l.72.22a8,8,0,0,1-1.41,1.16,2.36,2.36,0,0,1-1.94.34,2.63,2.63,0,0,1-1.39-1.33,8.27,8.27,0,0,1-.63-1.67,20.31,20.31,0,0,1-.53-3.44C272.87,156.18,272.84,155,272.82,153.88Z" style="opacity: 0.2; transform-origin: 285.45px 162.206px;" class="animable" id="elrt1uehb3h9d"></path></g><g id="elibeabzlvj6d"><path d="M265.51,171.49c-.1.42-.22.84-.3,1.27a9.23,9.23,0,0,0-.12,1.28,5.79,5.79,0,0,0,.46,2.48,5.7,5.7,0,0,0,1.45,2,6.86,6.86,0,0,0,2.09,1.31l.27.11-.05.3a14.85,14.85,0,0,0,.05,5.11,4.56,4.56,0,0,0,1,2.15,3.07,3.07,0,0,0,2,1,7.16,7.16,0,0,0,2.45-.27,16,16,0,0,0,2.43-.85,29.36,29.36,0,0,0,4.55-2.54l.56-.38.12.67a7.57,7.57,0,0,0,1.08,3.15.89.89,0,0,0,1.2.29,9.33,9.33,0,0,0,1.5-.84c2-1.32,3.83-2.83,5.68-4.34-.83.86-1.7,1.68-2.59,2.49a34.23,34.23,0,0,1-2.77,2.31,9.9,9.9,0,0,1-1.57,1c-.14.07-.33.11-.49.17a1.61,1.61,0,0,1-.58,0,1.82,1.82,0,0,1-.94-.58,7.58,7.58,0,0,1-1.38-3.51l.68.29a29.73,29.73,0,0,1-4.67,2.71,16,16,0,0,1-2.56.94,7.25,7.25,0,0,1-2.8.27,4.11,4.11,0,0,1-2.63-1.29,5.51,5.51,0,0,1-1.21-2.59,13.46,13.46,0,0,1,.11-5.44l.23.41a7.61,7.61,0,0,1-2.25-1.56,5.81,5.81,0,0,1-1.45-2.29,6,6,0,0,1-.29-2.65,7.08,7.08,0,0,1,.23-1.3C265.21,172.31,265.37,171.9,265.51,171.49Z" style="opacity: 0.2; transform-origin: 278.33px 180.503px;" class="animable" id="elr8g7fynl2gq"></path></g><g id="el9pu9jvmt0i5"><path d="M254.5,189.85a23.28,23.28,0,0,0-1.06,4,8,8,0,0,0-.1,2,2.27,2.27,0,0,0,.66,1.66,2.66,2.66,0,0,0,1.75.41,6.67,6.67,0,0,0,1.9-.41,16.38,16.38,0,0,0,3.55-1.84l.94-.65-.25,1.13a17,17,0,0,0-.43,5.48,4.64,4.64,0,0,0,.87,2.36,2.34,2.34,0,0,0,2.17.7,10.12,10.12,0,0,0,2.64-.66c.87-.31,1.72-.72,2.57-1.12a49.62,49.62,0,0,0,4.93-2.76l.44-.29v.53a1.27,1.27,0,0,0,.79,1.24,2.74,2.74,0,0,0,1.74-.18,5.93,5.93,0,0,0,.86-.38c.29-.13.56-.29.84-.45.55-.31,1.08-.68,1.61-1-.5.4-1,.84-1.51,1.19a8.73,8.73,0,0,1-.82.52,6.42,6.42,0,0,1-.86.46,3.1,3.1,0,0,1-2,.33,1.5,1.5,0,0,1-.91-.65,2.31,2.31,0,0,1-.33-1l.46.23a49.08,49.08,0,0,1-4.88,3,26.28,26.28,0,0,1-2.64,1.2,10.76,10.76,0,0,1-2.86.76,3.36,3.36,0,0,1-.78,0,2.31,2.31,0,0,1-.81-.12,2.14,2.14,0,0,1-.77-.34l-.35-.24-.28-.31a5.05,5.05,0,0,1-1.11-2.89,17.76,17.76,0,0,1,.54-5.82l.68.48a14.83,14.83,0,0,1-3.81,1.87,7.61,7.61,0,0,1-2.14.35,3.31,3.31,0,0,1-2.16-.65,2.85,2.85,0,0,1-.77-2.09,8.51,8.51,0,0,1,.26-2.1A19.82,19.82,0,0,1,254.5,189.85Z" style="opacity: 0.2; transform-origin: 266.863px 197.766px;" class="animable" id="elht3u7woiq1c"></path></g><g id="elf7fvy01hmh5"><g style="opacity: 0.2; transform-origin: 244.178px 179.36px;" class="animable" id="els01m6jfp0vc"><g id="eldfwc0qfzyib"><g style="opacity: 0.6; transform-origin: 251.865px 170.11px;" class="animable" id="elx820dj9m96"><path d="M246.29,185.17a1.69,1.69,0,0,1-1-.5,2.88,2.88,0,0,1-.55-1,6.77,6.77,0,0,1-.34-2.22,17.73,17.73,0,0,1,.64-4.41,36,36,0,0,1,3.38-8.19,53.44,53.44,0,0,1,4.94-7.33c.91-1.15,1.87-2.26,2.86-3.35s2-2.13,3.11-3.12c-.92,1.15-1.86,2.26-2.74,3.43s-1.79,2.31-2.62,3.5a79.85,79.85,0,0,0-4.67,7.35,45.56,45.56,0,0,0-3.53,7.92,18.47,18.47,0,0,0-.89,4.21,6.91,6.91,0,0,0,.11,2.13A1.93,1.93,0,0,0,246.29,185.17Z" style="fill: rgb(255, 255, 255); transform-origin: 251.865px 170.11px;" id="el6nttsbnm93k" class="animable"></path></g></g><path d="M228.32,214.11a4.18,4.18,0,0,1-.47-1.94,13.5,13.5,0,0,1,.06-2,31.13,31.13,0,0,1,.76-3.94,50.4,50.4,0,0,1,2.67-7.54,60.25,60.25,0,0,1,3.72-7.07c.71-1.13,1.44-2.24,2.22-3.32s1.6-2.13,2.49-3.12c-1.43,2.24-2.79,4.5-4,6.82s-2.42,4.68-3.47,7.1a77.93,77.93,0,0,0-2.86,7.34,31.78,31.78,0,0,0-1,3.8A7.62,7.62,0,0,0,228.32,214.11Z" style="fill: rgb(255, 255, 255); transform-origin: 233.803px 199.645px;" id="el80ggi363oco" class="animable"></path><path d="M232.27,191.07a2.79,2.79,0,0,1-.61-1.74,9.83,9.83,0,0,1,.06-1.88,20.72,20.72,0,0,1,.94-3.62,31.41,31.41,0,0,1,3.43-6.61,42.53,42.53,0,0,1,4.67-5.77c.87-.88,1.75-1.75,2.66-2.58s1.88-1.6,2.87-2.33c-.84.9-1.71,1.76-2.52,2.68s-1.65,1.81-2.44,2.74a66.88,66.88,0,0,0-4.41,5.82,40.56,40.56,0,0,0-3.54,6.34,19.75,19.75,0,0,0-1.18,3.42,9.81,9.81,0,0,0-.28,1.79A3,3,0,0,0,232.27,191.07Z" style="fill: rgb(255, 255, 255); transform-origin: 238.965px 178.805px;" id="elyte5p1mm89j" class="animable"></path><path d="M241,166.54a6,6,0,0,1,0-3.89,18.46,18.46,0,0,1,1.62-3.6,32.59,32.59,0,0,1,4.8-6.21,37.12,37.12,0,0,1,6-5,31.93,31.93,0,0,1,3.41-1.95,18.13,18.13,0,0,1,3.69-1.28,21.45,21.45,0,0,0-3.46,1.72,32.41,32.41,0,0,0-3.2,2.14,50.54,50.54,0,0,0-5.75,5.09,41.21,41.21,0,0,0-4.87,5.92,18.68,18.68,0,0,0-1.81,3.35A6.21,6.21,0,0,0,241,166.54Z" style="fill: rgb(255, 255, 255); transform-origin: 250.598px 155.575px;" id="elu65xwcgxsdd" class="animable"></path></g></g><g id="elk2j3oi843ql"><path d="M262,120.63c1.16,1.22,2.29,2.47,3.45,3.67.29.29.59.58.88.84s.61.51.8.49c.44,0,1.09-.65,1.43-1.26l.28-.5.46.35c.71.54,1.44,1.08,2.19,1.58a16.64,16.64,0,0,0,2.28,1.35,2,2,0,0,0,1.13.26,4.34,4.34,0,0,0,1.21-.38,14.71,14.71,0,0,0,2.31-1.43,10.22,10.22,0,0,1-2.06,1.87,4.65,4.65,0,0,1-1.34.6,2.25,2.25,0,0,1-.82,0,6.82,6.82,0,0,1-.72-.2,14.27,14.27,0,0,1-2.52-1.3c-.78-.51-1.54-1-2.27-1.6l.74-.15a5,5,0,0,1-.88,1.1,2,2,0,0,1-1.49.61,1.5,1.5,0,0,1-.79-.33,4,4,0,0,1-.52-.46c-.32-.31-.59-.64-.87-1-.54-.65-1-1.34-1.52-2S262.4,121.36,262,120.63Z" style="opacity: 0.2; transform-origin: 270.21px 124.369px;" class="animable" id="el22r43j990ad"></path></g><g id="elibdnsy1tpp"><path d="M292,119.66a10.1,10.1,0,0,1,.48,4.1,5.3,5.3,0,0,1-.64,2.06,1.82,1.82,0,0,1-1,.8,1.66,1.66,0,0,1-1.3-.31l.64-.18a20.72,20.72,0,0,1-1.49,3.29,10.32,10.32,0,0,1-2.31,2.87,5.77,5.77,0,0,1-3.61,1.12,10.1,10.1,0,0,1-3.6-.73l.53-.31a2.07,2.07,0,0,1-1.5,1.58,3.92,3.92,0,0,1-2-.09,9.9,9.9,0,0,1-1.77-.75,15.06,15.06,0,0,1-1.63-1c.59.25,1.15.53,1.74.74a8.88,8.88,0,0,0,1.77.51,3.44,3.44,0,0,0,1.72,0,1.37,1.37,0,0,0,.92-1.06l0-.46.47.14a10.39,10.39,0,0,0,3.31.5,4.76,4.76,0,0,0,3-1,9.73,9.73,0,0,0,2.11-2.58,22.13,22.13,0,0,0,1.54-3.08l.2-.49.44.31a.88.88,0,0,0,.61.23,1.2,1.2,0,0,0,.59-.45,4.68,4.68,0,0,0,.69-1.77,11,11,0,0,0,.2-2A15.44,15.44,0,0,0,292,119.66Z" style="opacity: 0.2; transform-origin: 282.66px 126.849px;" class="animable" id="el466lbqv9gks"></path></g><g id="elsdgkg96chsk"><path d="M280.14,139.84c.53.3,1,.63,1.55.88l.8.35a5.74,5.74,0,0,0,.81.23,3.09,3.09,0,0,0,1.57,0,2.43,2.43,0,0,0,1.21-.76l.39-.48.39.47a12.25,12.25,0,0,0,1.62,1.6,6.33,6.33,0,0,0,1.93,1.1,3,3,0,0,0,2.11,0,5.16,5.16,0,0,0,1.86-1.37,4.59,4.59,0,0,1-1.62,1.86,3.43,3.43,0,0,1-2.57.37,6.06,6.06,0,0,1-2.3-1.14,9.48,9.48,0,0,1-1.8-1.78h.78a3,3,0,0,1-1.81,1,3.56,3.56,0,0,1-1.95-.18,5.68,5.68,0,0,1-1.64-.9A10.44,10.44,0,0,1,280.14,139.84Z" style="opacity: 0.2; transform-origin: 287.26px 142.016px;" class="animable" id="el9u378zdctge"></path></g><g id="elvxfxwl63j8"><path d="M266.67,117.12s-14.93,2.08-20.38,0c0-1.6,11.31-6.08,11.31-6.08Z" style="fill: rgb(255, 255, 255); opacity: 0.2; transform-origin: 256.48px 114.542px;" class="animable" id="elvjrwxsutbrk"></path></g><path d="M288.86,252.45a2.74,2.74,0,0,1-.4.15,2.6,2.6,0,0,1-1.41.06,2.57,2.57,0,0,1-1.23-.38,224.46,224.46,0,0,1,.49,25.8,8.7,8.7,0,0,0,.74,3.73l.1.23,1-.24.11-.19a8.14,8.14,0,0,0,1.11-3.82,211.39,211.39,0,0,0-.4-24.17Z" style="fill: rgb(38, 50, 56); transform-origin: 287.682px 267.16px;" id="el9upze3w7rg9" class="animable"></path><path d="M296.05,283.62c-.47,19.11-1.35,38.14-1.61,43.54a5.81,5.81,0,0,1-.87,2.46.93.93,0,0,1-.73.5c-.28,0-.52-.26-.73-.61a5.33,5.33,0,0,1-.72-2.5c1.6-32.05,3.06-82,.7-89.2a2.53,2.53,0,0,0-.24-.56s0,0,0,0l-.1,0a5.17,5.17,0,0,1,.11.54,18,18,0,0,1-1.49,9.34,3,3,0,0,0-1-.93l-.06,0c-.44-.41-.81-.87-1.23-1.31a16.07,16.07,0,0,0,.9-5.73,4.79,4.79,0,0,0-.89-2.8c0-.38,0-.77,0-1.15.06-.19.1-.42.18-.62s.23-.41.35-.6.14-.19.21-.28a3.18,3.18,0,0,1,1.3.62,3.68,3.68,0,0,1,2.34,0,4.16,4.16,0,0,1,1.35.67C295,235.74,297.21,237.4,296.05,283.62Z" style="fill: rgb(38, 50, 56); transform-origin: 292.228px 281.915px;" id="elpconpljklss" class="animable"></path><g id="elfoloth6wvrn"><g style="opacity: 0.7; transform-origin: 291.098px 281.915px;" class="animable" id="el7jm0xo44e02"><path d="M288.86,252.45a2.74,2.74,0,0,1-.4.15,2.6,2.6,0,0,1-1.41.06,2.57,2.57,0,0,1-1.23-.38,224.46,224.46,0,0,1,.49,25.8,8.7,8.7,0,0,0,.74,3.73l.1.23,1-.24.11-.19a8.14,8.14,0,0,0,1.11-3.82,211.39,211.39,0,0,0-.4-24.17Z" style="fill: rgb(255, 255, 255); transform-origin: 287.682px 267.16px;" id="elv697frq6zwm" class="animable"></path><path d="M296.05,283.62c-.47,19.11-1.35,38.14-1.61,43.54a5.81,5.81,0,0,1-.87,2.46.93.93,0,0,1-.73.5c-.28,0-.52-.26-.73-.61a5.33,5.33,0,0,1-.72-2.5c1.6-32.05,3.06-82,.7-89.2a2.53,2.53,0,0,0-.24-.56s0,0,0,0l-.1,0a5.17,5.17,0,0,1,.11.54,18,18,0,0,1-1.49,9.34,3,3,0,0,0-1-.93l-.06,0c-.44-.41-.81-.87-1.23-1.31a16.07,16.07,0,0,0,.9-5.73,4.79,4.79,0,0,0-.89-2.8c0-.38,0-.77,0-1.15.06-.19.1-.42.18-.62s.23-.41.35-.6.14-.19.21-.28a3.18,3.18,0,0,1,1.3.62,3.68,3.68,0,0,1,2.34,0,4.16,4.16,0,0,1,1.35.67C295,235.74,297.21,237.4,296.05,283.62Z" style="fill: rgb(255, 255, 255); transform-origin: 292.228px 281.915px;" id="elrujjxpqnvtb" class="animable"></path></g></g><g id="elc2to97xt54o"><path d="M292.09,237.81a2.53,2.53,0,0,0-.24-.56s0,0,0,0l0,0c-.68-2.44-1.75-3-1.75-3a3.68,3.68,0,0,1,2.34,0C293,235.74,292.58,238.27,292.09,237.81Z" style="opacity: 0.2; transform-origin: 291.404px 235.962px;" class="animable" id="elno85tlikh2"></path></g><path d="M292.11,329.43l-.66,7.18a1.38,1.38,0,0,0,1.46.13l.65-7.14A2,2,0,0,0,292.11,329.43Z" style="fill: rgb(38, 50, 56); transform-origin: 292.505px 333.127px;" id="elhezl9nz806" class="animable"></path><g id="eljpssnsz3uqj"><path d="M292.11,329.43l-.66,7.18a1.38,1.38,0,0,0,1.46.13l.65-7.14A2,2,0,0,0,292.11,329.43Z" style="fill: rgb(255, 255, 255); opacity: 0.5; transform-origin: 292.505px 333.127px;" class="animable" id="el0r2shz2hp4sh"></path></g><path d="M286.87,281.46l-.66,7.17a1.36,1.36,0,0,0,1.46.13l.65-7.14A1.94,1.94,0,0,0,286.87,281.46Z" style="fill: rgb(38, 50, 56); transform-origin: 287.265px 285.15px;" id="elo44ynjp0jd" class="animable"></path><g id="elzqd2olnxrx"><path d="M286.87,281.46l-.66,7.17a1.36,1.36,0,0,0,1.46.13l.65-7.14A1.94,1.94,0,0,0,286.87,281.46Z" style="fill: rgb(255, 255, 255); opacity: 0.5; transform-origin: 287.265px 285.15px;" class="animable" id="elfvwgqkpsxcn"></path></g></g><g id="freepik--bird-1--inject-14" class="animable" style="transform-origin: 142.929px 338.302px;"><path d="M156.68,347.72S146.59,394.86,145,404.84s-6.09,7.22-6.09,7.22-2.13,8.56-5.7,8.6-4-6.56-4-6.56,0-1.27-2.76-5,.62-42.65-2.74-72.4S156.68,347.72,156.68,347.72Z" style="fill: #656363; transform-origin: 140.085px 373.247px;" id="els3ojpvi12c" class="animable"></path><g id="elm2xlazbef7s"><path d="M156.69,347.72s-1.34,6.25-3.12,14.69c-3.11,14.72-7.57,36.09-8.58,42.43-1.58,10-6.08,7.22-6.08,7.22s-2.13,8.55-5.7,8.61-4-6.57-4-6.57,0-1.27-2.76-5c-1.84-2.51-.92-20.88-1.15-41.7-.06-5.71-.21-11.61-.53-17.4-.23-4.54-.57-9-1.06-13.3-2.56-22.55,17.74-4.55,27.71,5.45C154.57,345.34,156.69,347.72,156.69,347.72Z" style="opacity: 0.4; transform-origin: 140.089px 373.257px;" class="animable" id="elzflzxv0yrt"></path></g><g id="elyjdo0qab2ib"><path d="M128,407.63c.21.11.38-.09.47-.25a3,3,0,0,0,.22-.56,9.71,9.71,0,0,0,.3-1.18c.16-.8.27-1.61.37-2.42.22-1.62.38-3.25.53-4.88l.83-9.78.83-9.79.44-4.89c.18-1.63.33-3.27.52-4.9,0,1.65,0,3.28,0,4.93l-.16,4.91c-.13,3.28-.35,6.55-.61,9.82s-.59,6.54-1.06,9.79c-.24,1.63-.49,3.25-.81,4.87-.18.8-.36,1.61-.6,2.4a10.09,10.09,0,0,1-.4,1.17,3,3,0,0,1-.31.55C128.39,407.58,128.17,407.77,128,407.63Z" style="opacity: 0.2; transform-origin: 130.255px 388.329px;" class="animable" id="elfi7441qhq6"></path></g><g id="elwzhkoq3h6s"><path d="M132.79,386.5a1.33,1.33,0,0,0,1.29-.3,3.83,3.83,0,0,0,.84-1.1,15.41,15.41,0,0,0,1.11-2.6c.61-1.8,1.1-3.65,1.55-5.51.92-3.73,1.67-7.5,2.59-11.26a58.9,58.9,0,0,1-1.62,11.5,35.64,35.64,0,0,1-1.79,5.56,13.07,13.07,0,0,1-1.44,2.58,4.15,4.15,0,0,1-1.09,1A1.39,1.39,0,0,1,132.79,386.5Z" style="opacity: 0.2; transform-origin: 136.48px 376.186px;" class="animable" id="elhp6vzczoebr"></path></g><g id="elami26grih4q"><path d="M131.44,413.35a1.69,1.69,0,0,0,1.47-1,8.43,8.43,0,0,0,.77-1.7,28.12,28.12,0,0,0,1-3.65c.52-2.48.94-5,1.32-7.5s.71-5,1.07-7.56l.51-3.79.56-3.8c0,2.56-.11,5.12-.3,7.67s-.49,5.1-.86,7.63a63.05,63.05,0,0,1-1.56,7.54,27.38,27.38,0,0,1-1.3,3.65,8.17,8.17,0,0,1-1,1.67A1.74,1.74,0,0,1,131.44,413.35Z" style="opacity: 0.2; transform-origin: 134.79px 398.855px;" class="animable" id="elzpohp9efy6d"></path></g><g id="elu7gi9gd2vr"><path d="M138.89,391.28c.61.25,1.13-.24,1.48-.68a8.74,8.74,0,0,0,.88-1.55,28.7,28.7,0,0,0,1.29-3.38c.74-2.3,1.41-4.64,2-7l1.84-7.06.91-3.54,1-3.53c-.26,2.43-.67,4.84-1.13,7.24s-1,4.78-1.63,7.14a61.92,61.92,0,0,1-2.27,7,26.88,26.88,0,0,1-1.58,3.35,8.42,8.42,0,0,1-1.12,1.49,2.31,2.31,0,0,1-.76.56A1,1,0,0,1,138.89,391.28Z" style="opacity: 0.2; transform-origin: 143.59px 377.975px;" class="animable" id="elvl8h05z2c8"></path></g><g id="el7qi20yjxabi"><path d="M136.62,408.72a1.5,1.5,0,0,0,1.49-.21,3.83,3.83,0,0,0,1-1.19,14.23,14.23,0,0,0,1.31-2.92,63.22,63.22,0,0,0,1.72-6.24c.51-2.11.92-4.24,1.36-6.37l1.23-6.43a53,53,0,0,1-.47,6.55,64.38,64.38,0,0,1-1.14,6.47,40,40,0,0,1-2,6.3,15,15,0,0,1-1.63,2.92,4.15,4.15,0,0,1-1.26,1.13A1.54,1.54,0,0,1,136.62,408.72Z" style="opacity: 0.2; transform-origin: 140.675px 397.156px;" class="animable" id="elwo79vno8pze"></path></g><g id="elqvl07v3miae"><path d="M156.69,347.72s-1.34,6.25-3.12,14.69c-4.84,3.9-16.16,11-28.3,5-.06-5.71-.21-11.61-.53-17.4,7.55-4.26,19.06-7.24,26.65-7.85C154.57,345.34,156.69,347.72,156.69,347.72Z" style="opacity: 0.2; transform-origin: 140.715px 355.943px;" class="animable" id="ellpgt7gc96j"></path></g><path d="M128.11,279.1c-11.61,3.53-19.25,21.76-20.58,34.34-1.69,16.07,2.39,35.61,5.68,38.74s2.22-2,2.22-2,1.23,16.88,4.59,16.93,2.66-35.55,2.66-35.55Z" style="fill: rgb(38, 50, 56); transform-origin: 117.623px 323.105px;" id="el2n5uf7nklv9" class="animable"></path><g id="eldhqilqx101"><path d="M128.11,279.1c-11.61,3.53-19.25,21.76-20.58,34.34-1.69,16.07,2.39,35.61,5.68,38.74s2.22-2,2.22-2,1.23,16.88,4.59,16.93,2.66-35.55,2.66-35.55Z" style="opacity: 0.2; transform-origin: 117.623px 323.105px;" class="animable" id="elalftt0jlwz"></path></g><path d="M155.75,360.34a10,10,0,0,0-2,.05c-3.21-2.08-4.05,2.42-4.05,2.42s.18,3.92,1.66,4.81a2,2,0,0,0,2.1.22s.09.88,1.92.43C158.15,367.61,159.09,360.88,155.75,360.34Zm-2.35,6.72a19.78,19.78,0,0,0,.79-5s.6.49.69,2.27A3.17,3.17,0,0,1,153.4,367.06Z" style="fill: rgb(38, 50, 56); transform-origin: 153.791px 364.12px;" id="elnncw171emmb" class="animable"></path><path d="M127.69,357.18a10.12,10.12,0,0,0-2,.05c-3.2-2.08-4,2.42-4,2.42s.18,3.92,1.66,4.81a2,2,0,0,0,2.1.22s.09.87,1.92.43C130.08,364.44,131,357.72,127.69,357.18Zm-2.35,6.72a19.8,19.8,0,0,0,.79-5s.59.5.69,2.28A3.17,3.17,0,0,1,125.34,363.9Z" style="fill: rgb(38, 50, 56); transform-origin: 125.751px 360.958px;" id="elmo17hjk89g" class="animable"></path><g id="elgz37qh2yml"><path d="M155.75,360.34a10,10,0,0,0-2,.05c-3.21-2.08-4.05,2.42-4.05,2.42s.18,3.92,1.66,4.81a2,2,0,0,0,2.1.22s.09.88,1.92.43C158.15,367.61,159.09,360.88,155.75,360.34Zm-2.35,6.72a19.78,19.78,0,0,0,.79-5s.6.49.69,2.27A3.17,3.17,0,0,1,153.4,367.06Z" style="fill: rgb(255, 255, 255); opacity: 0.2; transform-origin: 153.791px 364.12px;" class="animable" id="elimxb6dumit"></path></g><g id="elytuc0hd2si"><path d="M127.69,357.18a10.12,10.12,0,0,0-2,.05c-3.2-2.08-4,2.42-4,2.42s.18,3.92,1.66,4.81a2,2,0,0,0,2.1.22s.09.87,1.92.43C130.08,364.44,131,357.72,127.69,357.18Zm-2.35,6.72a19.8,19.8,0,0,0,.79-5s.59.5.69,2.28A3.17,3.17,0,0,1,125.34,363.9Z" style="fill: rgb(255, 255, 255); opacity: 0.2; transform-origin: 125.751px 360.958px;" class="animable" id="eld2rc8jnvkd"></path></g><path d="M167,284.74c4-1.38,10.8,21.62,11.64,28.55s-4.85,33.35-8.35,36.06-2.08-2-2.08-2-2.4,15.8-5.75,15.61-.19-33.66-.19-33.66Z" style="fill: rgb(38, 50, 56); transform-origin: 169.822px 323.821px;" id="el83shv259mst" class="animable"></path><path d="M143.62,362.73c-16.69-.91-24.54-8.21-29.44-30.86a63.21,63.21,0,0,1,10.95-51.25,41.23,41.23,0,0,1,3.45-4.17s2.49-7.5,4.39-13.69c2.48-8.08,18.59-8.6,27.11-3.59,7.32,4.3,10.54,10.25,9.42,15.85a11.54,11.54,0,0,1-.78,2.44h0a13.66,13.66,0,0,1-1.87,3.07c-.3.36-.62.73-1,1.09,0,0,.88,2,2.09,5.16.27.72.56,1.5.86,2.34,2.37,6.64,5.39,16.67,5.87,25.86C175.51,330.46,160.31,363.63,143.62,362.73Z" style="fill: #656363; transform-origin: 143.701px 309.341px;" id="el1fk54ai6zhn" class="animable"></path><g id="ele74w0d1wkxn"><path d="M168,286.79c-1.52,1.21-3.38,2.35-4.63,1.27,0,0-1.83,2.37-4.62.14,0,0-3,1.73-6.36-2.14,0,0-1.41,2.18-6.94-3.51a4.66,4.66,0,0,1-3.25-1.23,6.81,6.81,0,0,1-2.07-3.38c2.44,3.93,5.41,2.89,5.41,2.89s3.27,2.5,5.56,3a4.12,4.12,0,0,0,3.84-1.24s4.37,2.2,7,.48,4.71-2.83,4.71-2.83l.25.27c-.3.36-.62.73-1,1.09C165.89,281.63,166.77,283.6,168,286.79Z" style="opacity: 0.2; transform-origin: 154.065px 283.548px;" class="animable" id="eldhwtz6j4j1t"></path></g><g id="el57bn9wv19iq"><path d="M169.5,275a11.54,11.54,0,0,1-.78,2.44h0a6.58,6.58,0,0,1-6.45.64c-4.32-2-8.88,1.38-13.76-.25s-2.67-4.28-2.67-4.28c1.57-2,9.69,3,14.44,2.76s4.56-1.27,6.59-1.43C168.32,274.8,169,274.74,169.5,275Z" style="opacity: 0.2; transform-origin: 157.42px 275.859px;" class="animable" id="elzcwr1j0b23g"></path></g><path d="M167.14,287.42a6.29,6.29,0,0,1-1.32-.48c-3.39-1.57-11.79-6.31-11.74-7.3,0-.77.7-1.29,1.68-1.81a32.81,32.81,0,0,0,4.13-2.28c1.57-1.12,2.43,2.17,4.6,2.87a3.6,3.6,0,0,1,1.84,1.14,1.2,1.2,0,0,1,.27.71S168.08,287.47,167.14,287.42Z" style="fill: rgb(38, 50, 56); transform-origin: 160.766px 281.37px;" id="el2sfs2sqcolq" class="animable"></path><path d="M149.29,275.51a7.13,7.13,0,0,1,2.76,1c.1-1.19-1.68-1.62-2.42-1.74s-3-.33-3.26.84A7,7,0,0,1,149.29,275.51Z" style="fill: rgb(38, 50, 56); transform-origin: 149.212px 275.592px;" id="elcybacxzjn1h" class="animable"></path><path d="M166.36,276.37a3.38,3.38,0,0,1,1.95.3,1.43,1.43,0,0,0-1.82-1.08c-.62.08-2,.39-1.93,1.58A3.32,3.32,0,0,1,166.36,276.37Z" style="fill: rgb(38, 50, 56); transform-origin: 166.434px 276.349px;" id="elce7rr9dz8ou" class="animable"></path><g id="elthx6lwg6znp"><path d="M143.62,362.72c-16.69-.91-24.54-8.2-29.44-30.85a63.67,63.67,0,0,1,7.61-46.23c2-3.41,5.36-9,10.19-6.41a9.67,9.67,0,0,1,3.17,3.31,2.5,2.5,0,0,0,2-1.68,3.73,3.73,0,0,1,.69,1.94,2.77,2.77,0,0,0,.88,1.83c.56.41,1.57.19,1.65-.5a1.64,1.64,0,0,0,2.39,1.39c.37.58.74,1.16,1.1,1.74l1.28-.44a26.79,26.79,0,0,0,1.93,3.91,2.62,2.62,0,0,0,1.63,1.37c.73.12,1.55-.65,1.21-1.3a4.82,4.82,0,0,1,.83,1.72,2.6,2.6,0,0,0,1.12,1.5c.58.28,1.45,0,1.51-.65a10.51,10.51,0,0,0,2.06,2.95,3.59,3.59,0,0,0,3.33.95l.17.58a3,3,0,0,0,1.59-.36c1.3,1.07,3.29.14,4.48-1.07a11.63,11.63,0,0,0,2.31-3.4c.45-1,.52-3.09,1.55-3.59.95,1.34,1.33,3.54,1.82,5.12.66,2.14,1.27,4.29,1.81,6.46a74.36,74.36,0,0,1,2.24,14C175.51,330.45,160.31,363.62,143.62,362.72Z" style="fill: rgb(255, 255, 255); opacity: 0.6; transform-origin: 143.746px 320.652px;" class="animable" id="elygrhq1caag"></path></g><path d="M129.58,280.21c-6.28-3-13.21,6.53-16.51,15.81s-2.47,61.94,3.58,60.07c0,0,3.76-27.36,7.79-44.58S137.32,283.88,129.58,280.21Z" style="fill: rgb(38, 50, 56); transform-origin: 121.904px 317.893px;" id="elyq20xwutedi" class="animable"></path><g id="elkccy95r8ds"><g style="opacity: 0.2; transform-origin: 114.259px 313.805px;" class="animable" id="eln7bhqrxbaj"><path d="M119.19,301.16c-.39,1.59-.81,3.17-1.16,4.77s-.76,3.18-1.1,4.78c-.68,3.19-1.35,6.38-1.89,9.6s-1,6.44-1.3,9.68c-.08.81-.11,1.63-.18,2.44s-.09,1.63-.09,2.44-.09,1.63,0,2.45,0,1.63.06,2.45a48.17,48.17,0,0,1-.51-9.83,82.72,82.72,0,0,1,1.08-9.8c.56-3.24,1.26-6.45,2.13-9.61A90.36,90.36,0,0,1,119.19,301.16Z" style="fill: rgb(255, 255, 255); transform-origin: 116.074px 320.465px;" id="el0zkj2isthfib" class="animable"></path><path d="M119,287.84c-.4,1.08-.82,2.15-1.2,3.24s-.81,2.15-1.18,3.24c-.73,2.17-1.46,4.35-2,6.55a41.6,41.6,0,0,0-1.34,6.68,14.7,14.7,0,0,0,0,3.38,7.49,7.49,0,0,0,1,3.23,7.15,7.15,0,0,1-1.5-3.15,15.31,15.31,0,0,1-.27-3.51,30.72,30.72,0,0,1,1.14-6.89,51.51,51.51,0,0,1,2.31-6.56A52.79,52.79,0,0,1,119,287.84Z" style="fill: rgb(255, 255, 255); transform-origin: 115.749px 301px;" id="eld00sa2ybc9" class="animable"></path><path d="M110.89,312.8c-.08,2.77-.31,5.49-.47,8.22-.1,1.36-.16,2.72-.23,4.08s-.1,2.72-.12,4.11a25.5,25.5,0,0,1-.65-8.26A34.21,34.21,0,0,1,110.89,312.8Z" style="fill: rgb(255, 255, 255); transform-origin: 110.109px 321.005px;" id="elvndg00ahm1" class="animable"></path></g></g><g id="elljek24ff0yn"><path d="M167.14,287.42c-.15.11-.63-.08-1.32-.48-3.1-1.83-10.37-8-10.06-9.11a32.81,32.81,0,0,0,4.13-2.28c1.57-1.12,2.43,2.17,4.6,2.87a3.6,3.6,0,0,1,1.84,1.14C167,283.19,167.59,287.09,167.14,287.42Z" style="fill: rgb(255, 255, 255); opacity: 0.2; transform-origin: 161.524px 281.385px;" class="animable" id="eln7b5scvlllo"></path></g><g id="el3tr8n1qq7c1"><g style="opacity: 0.2; transform-origin: 150.136px 318.078px;" class="animable" id="elfet4gqbymdh"><path d="M137.29,294a4.46,4.46,0,0,0,1.45,1.31,3.54,3.54,0,0,0,1.64.46,11.21,11.21,0,0,0,0,3,6.62,6.62,0,0,0,1.17,3.09,4.84,4.84,0,0,0,1.24,1.19,7.34,7.34,0,0,0,1.52.73,3.57,3.57,0,0,0,1.79.14,2.45,2.45,0,0,0,.89-.39,10.13,10.13,0,0,0,1.14,2.72,6.12,6.12,0,0,0,2.9,2.62A5.9,5.9,0,0,0,155,309a7.38,7.38,0,0,0,2.92-1.68,5.59,5.59,0,0,0,4.13,2.1,5.27,5.27,0,0,0,1.75-.16,3.58,3.58,0,0,0,1.52-1,5.62,5.62,0,0,0,.92-1.48,9.39,9.39,0,0,0,.62-3.08,2.53,2.53,0,0,0,1.44-.55,3,3,0,0,0,.91-1.47,7.93,7.93,0,0,0,.14-3.32,8.57,8.57,0,0,1-.38,3.24,2.8,2.8,0,0,1-.89,1.26,2.15,2.15,0,0,1-1.41.38l-.25,0,0,.26a8.85,8.85,0,0,1-.73,3.06,4.78,4.78,0,0,1-.84,1.26,2.84,2.84,0,0,1-1.24.72,4.27,4.27,0,0,1-1.48.07,5.25,5.25,0,0,1-1.47-.34,4.77,4.77,0,0,1-2.28-1.83L158,306l-.41.42a6.7,6.7,0,0,1-2.9,1.72,5,5,0,0,1-3.27-.2,5.3,5.3,0,0,1-2.47-2.2,9.57,9.57,0,0,1-1.25-3.23l-.24-1.23-.62,1.11a1.46,1.46,0,0,1-.93.66,2.67,2.67,0,0,1-1.33-.11,6,6,0,0,1-1.34-.62,4.12,4.12,0,0,1-1.06-.94,6.07,6.07,0,0,1-1.15-2.73,11.21,11.21,0,0,1-.11-3.06l0-.35-.34.05a3.17,3.17,0,0,1-1.69-.3,4.41,4.41,0,0,1-1.42-1.13,7.76,7.76,0,0,1-1-1.56,14.94,14.94,0,0,1-.72-1.75,15.3,15.3,0,0,0,.57,1.82A7.49,7.49,0,0,0,137.29,294Z" id="elgvs407oeau8" class="animable" style="transform-origin: 152.606px 299.993px;"></path><path d="M171.67,314.43a5.64,5.64,0,0,1-1.14,1.85,3,3,0,0,1-1.76,1,3.5,3.5,0,0,1-2-.23l-.35-.15-.17.35a15.88,15.88,0,0,1-2.06,3.24,7,7,0,0,1-2.9,2.21,5.21,5.21,0,0,1-3.54-.17,7.88,7.88,0,0,1-3-2.17l-.31-.37-.36.35a1.87,1.87,0,0,1-.94.32,4.3,4.3,0,0,1-1.23-.07,9.94,9.94,0,0,1-2.44-.84,10.46,10.46,0,0,1-4-3.41,8.45,8.45,0,0,0,1.57,2.19,9.31,9.31,0,0,0,2.13,1.71,11,11,0,0,0,2.55,1.05,5.26,5.26,0,0,0,1.44.16,2.57,2.57,0,0,0,1.14-.27,8.1,8.1,0,0,0,3,2.25,6,6,0,0,0,4.22.2,7.6,7.6,0,0,0,3.31-2.55,15,15,0,0,0,1.91-3.22,4,4,0,0,0,2.06,0,3.68,3.68,0,0,0,2-1.3,6.13,6.13,0,0,0,1-2.09c.09-.37.19-.74.25-1.11l.14-1.13A16.7,16.7,0,0,1,171.67,314.43Z" id="elust2bhkvqhm" class="animable" style="transform-origin: 158.83px 318.075px;"></path><path d="M149.89,333a11.72,11.72,0,0,0,3.76,1.5,7.89,7.89,0,0,0,4-.39,7.06,7.06,0,0,0,3.23-2.29,7.78,7.78,0,0,1-7.12,2.12,11.19,11.19,0,0,1-3.49-1.57,21.32,21.32,0,0,1-3-2.42l-.28-.27-.33.26a4.15,4.15,0,0,1-1.87.75,7.74,7.74,0,0,1-2.15,0,8.84,8.84,0,0,1-2.1-.51,5,5,0,0,1-.9-.5,7.57,7.57,0,0,1-.81-.69,13.86,13.86,0,0,1-2.53-3.61,27.33,27.33,0,0,1-1.68-4.17l-.13-.43-.42.14a2.86,2.86,0,0,1-1.66.07,2.9,2.9,0,0,1-1.4-1,9.67,9.67,0,0,1-1.64-3.38,36.46,36.46,0,0,1-1.27-7.68,32.24,32.24,0,0,0,.11,3.93,23.79,23.79,0,0,0,.62,3.9,10.09,10.09,0,0,0,1.61,3.69,3.68,3.68,0,0,0,1.72,1.29,3.23,3.23,0,0,0,1.77.07,26.82,26.82,0,0,0,1.54,4,15,15,0,0,0,2.66,3.91,6,6,0,0,0,2.05,1.36,9.1,9.1,0,0,0,2.35.55,8.19,8.19,0,0,0,2.42-.06,5.18,5.18,0,0,0,2-.76A17.49,17.49,0,0,0,149.89,333Z" id="elrivdnsd0u4s" class="animable" style="transform-origin: 144.481px 321.766px;"></path><path d="M162.81,342a6.3,6.3,0,0,1-2.07,1.13,2.14,2.14,0,0,1-2-.39l-.22-.17-.27.1a48.5,48.5,0,0,1-6,1.9,19.11,19.11,0,0,1-3.09.49,4.84,4.84,0,0,1-3-.58,4.57,4.57,0,0,0,3,1.11,15.54,15.54,0,0,0,3.27-.2,30.7,30.7,0,0,0,6-1.73l.38.23a3,3,0,0,0,.73.23A3.11,3.11,0,0,0,161,344a6.21,6.21,0,0,0,2.29-1.44,13.8,13.8,0,0,0,1.7-2,16.5,16.5,0,0,0,1.33-2.2A23.63,23.63,0,0,1,162.81,342Z" id="elurdmfrpusa" class="animable" style="transform-origin: 156.24px 341.983px;"></path></g></g></g><defs>     <filter id="active" height="200%">         <feMorphology in="SourceAlpha" result="DILATED" operator="dilate" radius="2"></feMorphology>                <feFlood flood-color="#32DFEC" flood-opacity="1" result="PINK"></feFlood>        <feComposite in="PINK" in2="DILATED" operator="in" result="OUTLINE"></feComposite>        <feMerge>            <feMergeNode in="OUTLINE"></feMergeNode>            <feMergeNode in="SourceGraphic"></feMergeNode>        </feMerge>    </filter>    <filter id="hover" height="200%">        <feMorphology in="SourceAlpha" result="DILATED" operator="dilate" radius="2"></feMorphology>                <feFlood flood-color="#ff0000" flood-opacity="0.5" result="PINK"></feFlood>        <feComposite in="PINK" in2="DILATED" operator="in" result="OUTLINE"></feComposite>        <feMerge>            <feMergeNode in="OUTLINE"></feMergeNode>            <feMergeNode in="SourceGraphic"></feMergeNode>        </feMerge>            <feColorMatrix type="matrix" values="0   0   0   0   0                0   1   0   0   0                0   0   0   0   0                0   0   0   1   0 "></feColorMatrix>    </filter></defs></svg>